<svg width="1274" height="942" viewBox="0 0 1274 942" fill="none" xmlns="http://www.w3.org/2000/svg">
<path d="M364.741 211.182V393H342.724V234.264H341.659L297.27 263.739V241.366L342.724 211.182H364.741ZM437.895 368.142L436.474 377.73C435.468 384.477 433.929 391.698 431.858 399.392C429.846 407.086 427.745 414.336 425.555 421.143C423.365 427.949 421.56 433.365 420.139 437.389H404.159C404.929 433.601 405.935 428.6 407.178 422.386C408.42 416.171 409.663 409.217 410.906 401.523C412.208 393.888 413.274 386.075 414.102 378.085L415.168 368.142H437.895ZM546.671 393V377.02L606.685 311.324C613.728 303.63 619.528 296.942 624.085 291.26C628.643 285.519 632.016 280.133 634.206 275.102C636.455 270.012 637.58 264.686 637.58 259.122C637.58 252.73 636.041 247.196 632.963 242.521C629.945 237.845 625.802 234.235 620.534 231.69C615.267 229.145 609.348 227.872 602.779 227.872C595.795 227.872 589.699 229.322 584.49 232.222C579.341 235.063 575.346 239.058 572.505 244.207C569.723 249.357 568.333 255.393 568.333 262.318H547.381C547.381 251.665 549.837 242.313 554.749 234.264C559.662 226.215 566.35 219.941 574.813 215.443C583.336 210.945 592.895 208.696 603.489 208.696C614.142 208.696 623.582 210.945 631.809 215.443C640.036 219.941 646.487 226.008 651.163 233.643C655.838 241.278 658.176 249.771 658.176 259.122C658.176 265.81 656.963 272.35 654.536 278.742C652.169 285.075 648.026 292.148 642.107 299.96C636.248 307.714 628.11 317.183 617.693 328.369L576.855 372.048V373.469H661.372V393H546.671ZM729.643 368.142L728.222 377.73C727.216 384.477 725.677 391.698 723.606 399.392C721.594 407.086 719.493 414.336 717.303 421.143C715.113 427.949 713.308 433.365 711.887 437.389H695.907C696.677 433.601 697.683 428.6 698.926 422.386C700.169 416.171 701.411 409.217 702.654 401.523C703.956 393.888 705.022 386.075 705.85 378.085L706.916 368.142H729.643ZM899.853 395.486C888.135 395.486 877.688 393.473 868.515 389.449C859.4 385.424 852.15 379.831 846.764 372.67C841.437 365.449 838.537 357.074 838.064 347.545H860.436C860.909 353.405 862.922 358.465 866.473 362.727C870.024 366.929 874.67 370.184 880.411 372.492C886.152 374.8 892.514 375.955 899.498 375.955C907.311 375.955 914.235 374.593 920.272 371.871C926.309 369.148 931.044 365.36 934.477 360.507C937.91 355.654 939.626 350.031 939.626 343.639C939.626 336.951 937.969 331.062 934.654 325.972C931.34 320.823 926.487 316.799 920.095 313.898C913.703 310.998 905.89 309.548 896.657 309.548H882.098V290.017H896.657C903.878 290.017 910.211 288.715 915.656 286.111C921.16 283.507 925.451 279.837 928.529 275.102C931.666 270.367 933.234 264.804 933.234 258.412C933.234 252.257 931.873 246.9 929.15 242.343C926.428 237.786 922.581 234.235 917.609 231.69C912.697 229.145 906.896 227.872 900.208 227.872C893.935 227.872 888.016 229.026 882.453 231.335C876.949 233.584 872.45 236.868 868.958 241.189C865.467 245.45 863.573 250.599 863.277 256.636H841.97C842.325 247.107 845.195 238.762 850.581 231.601C855.967 224.38 863.01 218.758 871.711 214.733C880.47 210.708 890.088 208.696 900.564 208.696C911.809 208.696 921.456 210.975 929.505 215.532C937.555 220.03 943.739 225.978 948.06 233.376C952.381 240.775 954.541 248.765 954.541 257.347C954.541 267.586 951.848 276.316 946.462 283.536C941.135 290.757 933.885 295.758 924.711 298.54V299.96C936.193 301.854 945.16 306.737 951.611 314.609C958.062 322.421 961.288 332.098 961.288 343.639C961.288 353.523 958.595 362.401 953.209 370.273C947.882 378.085 940.603 384.241 931.37 388.739C922.137 393.237 911.631 395.486 899.853 395.486ZM1023.59 368.142L1022.17 377.73C1021.16 384.477 1019.62 391.698 1017.55 399.392C1015.54 407.086 1013.44 414.336 1011.25 421.143C1009.06 427.949 1007.25 433.365 1005.83 437.389H989.852C990.622 433.601 991.628 428.6 992.871 422.386C994.114 416.171 995.357 409.217 996.6 401.523C997.902 393.888 998.967 386.075 999.796 378.085L1000.86 368.142H1023.59ZM1128.1 355.713V337.602L1208 211.182H1221.14V239.236H1212.26L1151.9 334.761V336.182H1259.49V355.713H1128.1ZM1213.69 393V350.209V341.775V211.182H1234.64V393H1213.69Z" fill="#006CA9"/>
<path d="M14.5597 843.713V825.602L94.4602 699.182H107.599V727.236H98.7216L38.3523 822.761V824.182H145.952V843.713H14.5597ZM100.142 881V838.209V829.775V699.182H121.094V881H100.142ZM202.282 856.142L200.861 865.73C199.855 872.477 198.316 879.698 196.245 887.392C194.232 895.086 192.131 902.336 189.941 909.143C187.752 915.949 185.946 921.365 184.526 925.389H168.546C169.315 921.601 170.321 916.6 171.564 910.386C172.807 904.171 174.05 897.217 175.293 889.523C176.595 881.888 177.66 874.075 178.489 866.085L179.554 856.142H202.282ZM374.978 699.182V881H352.961V722.264H351.895L307.506 751.739V729.366L352.961 699.182H374.978ZM448.131 856.142L446.711 865.73C445.705 872.477 444.166 879.698 442.094 887.392C440.082 895.086 437.981 902.336 435.791 909.143C433.601 915.949 431.796 921.365 430.376 925.389H414.395C415.165 921.601 416.171 916.6 417.414 910.386C418.657 904.171 419.9 897.217 421.143 889.523C422.445 881.888 423.51 874.075 424.339 866.085L425.404 856.142H448.131ZM556.907 881V865.02L616.921 799.324C623.964 791.63 629.764 784.942 634.322 779.26C638.879 773.519 642.253 768.133 644.442 763.102C646.692 758.012 647.816 752.686 647.816 747.122C647.816 740.73 646.277 735.196 643.2 730.521C640.181 725.845 636.038 722.235 630.771 719.69C625.503 717.145 619.585 715.872 613.015 715.872C606.031 715.872 599.935 717.322 594.727 720.222C589.577 723.063 585.582 727.058 582.741 732.207C579.96 737.357 578.569 743.393 578.569 750.318H557.617C557.617 739.665 560.073 730.313 564.986 722.264C569.898 714.215 576.586 707.941 585.05 703.443C593.572 698.945 603.131 696.696 613.725 696.696C624.379 696.696 633.819 698.945 642.045 703.443C650.272 707.941 656.723 714.008 661.399 721.643C666.075 729.278 668.413 737.771 668.413 747.122C668.413 753.81 667.199 760.35 664.773 766.742C662.405 773.075 658.262 780.148 652.344 787.96C646.484 795.714 638.346 805.183 627.93 816.369L587.092 860.048V861.469H671.609V881H556.907ZM739.879 856.142L738.459 865.73C737.453 872.477 735.914 879.698 733.842 887.392C731.83 895.086 729.729 902.336 727.539 909.143C725.349 915.949 723.544 921.365 722.124 925.389H706.143C706.913 921.601 707.919 916.6 709.162 910.386C710.405 904.171 711.648 897.217 712.891 889.523C714.193 881.888 715.258 874.075 716.087 866.085L717.152 856.142H739.879ZM910.09 883.486C898.371 883.486 887.925 881.473 878.751 877.449C869.636 873.424 862.386 867.831 857 860.67C851.673 853.449 848.773 845.074 848.3 835.545H870.672C871.146 841.405 873.158 846.465 876.709 850.727C880.26 854.929 884.906 858.184 890.647 860.492C896.388 862.8 902.751 863.955 909.735 863.955C917.547 863.955 924.472 862.593 930.509 859.871C936.546 857.148 941.28 853.36 944.713 848.507C948.146 843.654 949.862 838.031 949.862 831.639C949.862 824.951 948.205 819.062 944.891 813.972C941.576 808.823 936.723 804.799 930.331 801.898C923.939 798.998 916.127 797.548 906.894 797.548H892.334V778.017H906.894C914.114 778.017 920.447 776.715 925.892 774.111C931.396 771.507 935.687 767.837 938.765 763.102C941.902 758.367 943.47 752.804 943.47 746.412C943.47 740.257 942.109 734.9 939.387 730.343C936.664 725.786 932.817 722.235 927.845 719.69C922.933 717.145 917.133 715.872 910.445 715.872C904.171 715.872 898.253 717.026 892.689 719.335C887.185 721.584 882.687 724.868 879.195 729.189C875.703 733.45 873.809 738.599 873.513 744.636H852.206C852.561 735.107 855.432 726.762 860.818 719.601C866.204 712.38 873.247 706.758 881.947 702.733C890.706 698.708 900.324 696.696 910.8 696.696C922.045 696.696 931.692 698.975 939.742 703.532C947.791 708.03 953.976 713.978 958.296 721.376C962.617 728.775 964.777 736.765 964.777 745.347C964.777 755.586 962.084 764.316 956.698 771.536C951.372 778.757 944.121 783.758 934.948 786.54V787.96C946.43 789.854 955.396 794.737 961.847 802.609C968.299 810.421 971.524 820.098 971.524 831.639C971.524 841.523 968.831 850.401 963.445 858.273C958.119 866.085 950.839 872.241 941.606 876.739C932.373 881.237 921.868 883.486 910.09 883.486Z" fill="#FA8F00"/>
<line x1="53" y1="7.5" x2="1213" y2="7.5" stroke="#737370" stroke-width="15"/>
<line x1="1206.5" y1="15" x2="1206.5" y2="151" stroke="#737370" stroke-width="15"/>
<path d="M56.6967 156.303C59.6256 159.232 64.3744 159.232 67.3033 156.303L115.033 108.574C117.962 105.645 117.962 100.896 115.033 97.967C112.104 95.0381 107.355 95.0381 104.426 97.967L62 140.393L19.5736 97.967C16.6447 95.0381 11.8959 95.0381 8.96699 97.967C6.03806 100.896 6.03806 105.645 8.96699 108.574L56.6967 156.303ZM54.5 15L54.5 151H69.5L69.5 15H54.5Z" fill="#737370"/>
<rect x="2.5" y="177.5" width="164" height="762" stroke="#737370" stroke-width="5"/>
<rect x="1105.5" y="177.5" width="164" height="762" stroke="#737370" stroke-width="5"/>
</svg>
